<?xml version="1.0" encoding="utf-8"?>
<!-- Generator: Adobe Illustrator 24.2.3, SVG Export Plug-In . SVG Version: 6.00 Build 0)  -->
<svg version="1.1" id="Capa_1" xmlns="http://www.w3.org/2000/svg" xmlns:xlink="http://www.w3.org/1999/xlink" x="0px" y="0px"
	 viewBox="0 0 71 73" style="enable-background:new 0 0 71 73;" xml:space="preserve">
<style type="text/css">
	.st0{fill:#272525;}
</style>
<path id="XMLID_4009_" class="st0" d="M22.8,31.33c-11.35,0-20.58,9.23-20.58,20.58c0,11.35,9.23,20.58,20.58,20.58
	c8.97,0,16.62-5.77,19.43-13.8c1.39,0.06,2.66,0.08,3.7,0.08c6.32,0,21.02-0.67,21.02-6.86c0-0.02,0-0.04,0-0.06
	c0-0.02,0-0.03,0-0.05v-7.9v-0.36c0.04-0.18,0.06-0.37,0.06-0.57c0-0.18-0.02-0.36-0.06-0.53v-6.8c0.04-0.18,0.06-0.37,0.06-0.57
	c0-0.18-0.02-0.36-0.06-0.53v-7.57c0.04-0.18,0.06-0.37,0.06-0.57c0-0.33-0.06-0.63-0.17-0.92c0.07-0.27,0.11-0.55,0.11-0.85
	c0-0.02,0-0.04,0-0.06c0-0.02,0-0.03,0-0.05v-8.27c0.04-0.18,0.06-0.37,0.06-0.57c0-0.18-0.02-0.36-0.06-0.53V7.57
	C66.98,7.39,67,7.2,67,7c0-0.34-0.07-0.65-0.18-0.96c-0.18-0.64-0.58-1.17-1.11-1.5C61.42,0.9,47.74,0.78,45.92,0.78
	c-1.81,0-15.49,0.13-19.79,3.77c-0.53,0.33-0.93,0.86-1.11,1.5c-0.11,0.3-0.18,0.62-0.18,0.96c0,0.2,0.02,0.38,0.06,0.57v7.57
	c-0.04,0.17-0.06,0.35-0.06,0.53c0,0.2,0.02,0.38,0.06,0.57v8.27c0,0.02,0,0.04,0,0.05c0,0.02,0,0.03,0,0.05
	c0,0.3,0.04,0.58,0.11,0.85c-0.1,0.29-0.17,0.6-0.17,0.92c0,0.2,0.02,0.38,0.06,0.57v4.48C24.21,31.37,23.51,31.33,22.8,31.33z
	 M64.54,51.74c0,0.05-0.01,0.1,0,0.15c0,0.02,0,0.04,0,0.07c-0.12,2.31-8.42,4.18-18.62,4.18c-1.01,0-2-0.02-2.97-0.06
	c0.28-1.35,0.43-2.74,0.43-4.16c0-0.36-0.01-0.72-0.03-1.08c0.95,0.03,1.83,0.04,2.58,0.04c4.74,0,14.19-0.38,18.62-3.17V51.74z
	 M64.54,43.83c0,0.05-0.01,0.1,0,0.15c0,0.02,0,0.04,0,0.07c-0.12,2.31-8.42,4.18-18.62,4.18c-0.99,0-1.95-0.02-2.89-0.06
	c-0.4-2.18-1.14-4.24-2.18-6.13c1.93,0.11,3.7,0.15,5.07,0.15c4.74,0,14.19-0.38,18.62-3.17V43.83z M64.54,24.45
	c0,0.05-0.01,0.1,0,0.15c0,0.02,0,0.04,0,0.07c-0.12,2.31-8.42,4.18-18.62,4.18c-10.19,0-18.5-1.87-18.62-4.18c0-0.05,0-0.09,0-0.13
	c0-0.02,0-0.06,0-0.09l0-4.82c4.43,2.8,13.88,3.18,18.62,3.18c4.74,0,14.19-0.38,18.62-3.17V24.45z M45.92,3.82
	c10.57,0,17.12,1.96,18.22,3.19c-1.11,1.22-7.66,3.19-18.22,3.19C35.36,10.19,28.81,8.23,27.7,7C28.81,5.78,35.36,3.82,45.92,3.82z
	 M45.92,13.22c1.67,0,13.43-0.11,18.62-2.98v5.53c0,0.05-0.01,0.1,0,0.15c0,0.02,0,0.04,0,0.07c-0.12,2.31-8.42,4.18-18.62,4.18
	c-10.19,0-18.5-1.87-18.62-4.18c0-0.05,0-0.09,0-0.13c0-0.03,0-0.06,0-0.09l0-5.53C32.49,13.12,44.25,13.22,45.92,13.22z
	 M45.92,32.61c1.67,0,13.43-0.11,18.62-2.98v5.52c0,0.05-0.01,0.1,0,0.15c0,0.02,0,0.04,0,0.07c-0.12,2.31-8.42,4.18-18.62,4.18
	c-2.45,0-4.78-0.11-6.92-0.31c-2.88-3.68-6.99-6.36-11.7-7.41l0-2.2C32.49,32.51,44.25,32.61,45.92,32.61z M40.74,51.91
	c0,9.89-8.05,17.94-17.94,17.94c-9.89,0-17.94-8.05-17.94-17.94c0-9.89,8.05-17.94,17.94-17.94C32.69,33.97,40.74,42.02,40.74,51.91
	z M10.77,41.08c0.43,1.14,10.94,27.51,10.96,27.51C21.76,68.59,37,50.02,37,49.98c0-0.02-1.21-1.19-2.7-2.6l-2.7-2.56l-1.63-0.3
	c-0.9-0.17-5.56-1.02-10.36-1.91c-4.8-0.89-8.76-1.61-8.8-1.61C10.76,41,10.74,41.02,10.77,41.08z M17.77,43.8
	c1.61,0.3,4.88,0.9,7.26,1.34s4.38,0.81,4.44,0.83c0.09,0.03-0.28,0.35-2.75,2.4c-1.57,1.3-2.88,2.37-2.91,2.37
	c-0.05,0-8.68-7.13-8.95-7.38c-0.05-0.05-0.08-0.09-0.06-0.09S16.16,43.5,17.77,43.8z M18.62,48.42c2.48,2.06,4.52,3.74,4.52,3.75
	c0.01,0.01-1.47,12.18-1.49,12.2c-0.01,0.01-7.55-18.9-7.95-19.95C13.67,44.31,13.11,43.85,18.62,48.42z M32.82,48.05
	c1.2,1.14,1.52,1.47,1.46,1.49c-0.1,0.05-8.37,1.54-8.39,1.52c-0.02-0.02,5.31-4.46,5.36-4.46C31.27,46.6,31.97,47.25,32.82,48.05z
	 M33.94,51.35c-0.11,0.13-2.56,3.12-5.45,6.64c-2.89,3.52-5.26,6.39-5.27,6.38c-0.01-0.01,0.29-2.61,0.67-5.78l0.7-5.75l4.56-0.83
	c2.51-0.45,4.63-0.84,4.72-0.86C34.14,51.1,34.15,51.11,33.94,51.35z"/>
</svg>
