<?xml version="1.0" encoding="utf-8"?>
<!-- Generator: Adobe Illustrator 24.2.3, SVG Export Plug-In . SVG Version: 6.00 Build 0)  -->
<svg version="1.1" id="Capa_1" xmlns="http://www.w3.org/2000/svg" xmlns:xlink="http://www.w3.org/1999/xlink" x="0px" y="0px"
	 viewBox="0 0 71 73" style="enable-background:new 0 0 71 73;" xml:space="preserve">
<style type="text/css">
	.st0{fill:#272525;}
</style>
<path id="XMLID_3985_" class="st0" d="M31.56,61.22c0.21,2.06,1.13,4.01,2.61,5.48c0.18,0.18,0.42,0.27,0.67,0.27
	c0.1,0,0.19-0.01,0.29-0.04c0.34-0.11,0.58-0.39,0.65-0.74c0.24-1.38,1.43-2.38,2.83-2.38h4.72c1.19,0,2.25,0.72,2.68,1.84
	c0.12,0.32,0.4,0.54,0.74,0.59c0.33,0.05,0.67-0.08,0.88-0.35c1.47-1.84,2.15-4.16,1.92-6.52c-0.42-4.25-3.81-7.64-8.06-8.06
	c-0.32-0.03-0.63-0.05-0.92-0.05c-2.55,0-4.99,1.08-6.7,2.97C32.11,56.14,31.3,58.62,31.56,61.22z M40.54,62.44
	c-1.88,0-3.42-1.53-3.42-3.42c0-1.89,1.53-3.42,3.42-3.42c1.89,0,3.42,1.53,3.42,3.42C43.96,60.9,42.43,62.44,40.54,62.44z
	 M35.25,55.5c1.35-1.49,3.28-2.35,5.29-2.35c0.23,0,0.48,0.01,0.74,0.04c3.36,0.33,6.03,3.01,6.37,6.37
	c0.14,1.39-0.13,2.77-0.75,3.98c-0.75-0.86-1.78-1.42-2.94-1.58c0.68-0.79,1.1-1.82,1.1-2.94c0-2.49-2.03-4.51-4.51-4.51
	c-2.49,0-4.51,2.03-4.51,4.51c0,1.2,0.47,2.28,1.23,3.09c-1.13,0.33-2.1,1.07-2.72,2.06c-0.61-0.94-0.99-2.02-1.1-3.14
	C33.24,58.98,33.88,57.01,35.25,55.5z"/>
<path id="XMLID_3981_" class="st0" d="M7.99,43.24c0.27,0.27,0.68,0.35,1.03,0.2c0.35-0.15,0.58-0.49,0.58-0.87v-0.83
	c0-2.92,2.19-5.36,5.08-5.69c0.01,0,0.02,0,0.03,0c0.22-0.02,0.42-0.04,0.61-0.04h8.22c3.16,0,5.73,2.57,5.73,5.73v0.83
	c0,0.38,0.23,0.73,0.58,0.87c0.12,0.05,0.24,0.07,0.36,0.07c0.24,0,0.48-0.09,0.66-0.27c3.13-3.09,4.85-7.21,4.85-11.59
	c0-8.99-7.31-16.3-16.3-16.3c-8.99,0-16.3,7.31-16.3,16.3C3.13,36.03,4.86,40.15,7.99,43.24z M20.31,34.12h-1.74
	c-3.05-0.43-5.41-3.05-5.41-6.21c0-3.46,2.82-6.28,6.28-6.28c3.46,0,6.28,2.82,6.28,6.28C25.72,31.07,23.36,33.69,20.31,34.12z
	 M19.44,17.24c7.95,0,14.41,6.47,14.41,14.41c0,3.13-0.99,6.1-2.83,8.57c-0.66-3.24-3.38-5.74-6.74-6.07
	c1.87-1.45,3.08-3.71,3.08-6.25c0-4.37-3.55-7.92-7.92-7.92c-4.37,0-7.92,3.55-7.92,7.92c0,2.54,1.21,4.8,3.08,6.25
	c-0.02,0-0.05,0-0.07,0.01c-0.04,0-0.08,0.01-0.11,0.01c-3.31,0.4-5.91,2.88-6.55,6.04c-1.84-2.47-2.83-5.44-2.83-8.57
	C5.02,23.71,11.49,17.24,19.44,17.24z"/>
<path id="XMLID_3975_" class="st0" d="M0.34,31.65c0,10.53,8.57,19.11,19.1,19.11c2.83,0,5.66-0.65,8.22-1.87l3.73,4.16
	c-1.9,2.38-2.77,5.35-2.46,8.43c0.55,5.5,4.94,9.89,10.43,10.43c0.39,0.04,0.78,0.06,1.18,0.06c3.29,0,6.45-1.4,8.66-3.84
	c2.24-2.47,3.29-5.68,2.96-9.02c-0.55-5.5-4.93-9.89-10.44-10.43c-2.37-0.23-4.78,0.28-6.87,1.44l-3.33-3.7
	c4.41-3.62,7.01-9.06,7.01-14.76c0-1.5-0.18-3.01-0.55-4.49l4.53-1.6c2.52,5.01,7.64,8.2,13.28,8.2c8.19,0,14.86-6.67,14.86-14.86
	S64,4.03,55.8,4.03c-8.19,0-14.86,6.67-14.86,14.86c0,0.77,0.06,1.56,0.19,2.34l-4.73,1.67c-3.27-6.32-9.84-10.36-16.96-10.36
	C8.9,12.55,0.34,21.12,0.34,31.65z M19.44,14.44c6.68,0,12.81,3.94,15.63,10.04c0.2,0.44,0.71,0.66,1.17,0.5l6.29-2.22
	c0.45-0.16,0.71-0.63,0.61-1.09c-0.2-0.92-0.3-1.85-0.3-2.76c0-7.15,5.82-12.97,12.97-12.97c7.15,0,12.97,5.82,12.97,12.97
	S62.96,31.87,55.8,31.87c-5.18,0-9.86-3.09-11.92-7.86c-0.2-0.46-0.72-0.68-1.18-0.52l-6.16,2.18c-0.47,0.17-0.73,0.68-0.59,1.16
	c0.47,1.59,0.7,3.21,0.7,4.83c0,5.44-2.64,10.62-7.06,13.87c-0.22,0.16-0.35,0.4-0.38,0.67c-0.03,0.26,0.06,0.53,0.24,0.73
	l4.53,5.04c0.31,0.35,0.83,0.41,1.22,0.16c1.88-1.22,4.14-1.78,6.35-1.56c4.61,0.46,8.28,4.13,8.74,8.74
	c0.28,2.8-0.6,5.49-2.48,7.57c-1.85,2.04-4.49,3.22-7.25,3.22c-0.34,0-0.67-0.02-1-0.05c-4.61-0.45-8.28-4.13-8.74-8.74
	c-0.28-2.81,0.61-5.49,2.45-7.53c0.03-0.02,0.09-0.08,0.11-0.11c0.31-0.36,0.31-0.9-0.01-1.25l-4.77-5.31
	c-0.18-0.2-0.44-0.31-0.7-0.31c-0.15,0-0.3,0.04-0.44,0.11c-2.5,1.32-5.19,1.99-8,1.99c-9.49,0-17.21-7.72-17.21-17.21
	C2.23,22.16,9.95,14.44,19.44,14.44z"/>
<path id="XMLID_1_" class="st0" d="M47.38,27.6c0.2,0.2,0.5,0.26,0.76,0.15c0.26-0.11,0.43-0.36,0.43-0.64v-0.61
	c0-2.15,1.61-3.95,3.74-4.19c0.01,0,0.02,0,0.02,0c0.16-0.02,0.31-0.03,0.45-0.03h6.05c2.33,0,4.22,1.89,4.22,4.22v0.61
	c0,0.28,0.17,0.53,0.43,0.64c0.09,0.04,0.18,0.05,0.27,0.05c0.18,0,0.36-0.07,0.49-0.2c2.3-2.28,3.57-5.31,3.57-8.53
	c0-6.62-5.39-12-12-12c-6.62,0-12.01,5.38-12.01,12C43.8,22.29,45.07,25.32,47.38,27.6z M56.45,20.88h-1.28
	c-2.25-0.31-3.98-2.24-3.98-4.57c0-2.55,2.07-4.63,4.62-4.63c2.55,0,4.63,2.07,4.63,4.63C60.43,18.64,58.7,20.57,56.45,20.88z
	 M55.81,8.46c5.85,0,10.61,4.76,10.61,10.61c0,2.3-0.73,4.49-2.09,6.31c-0.48-2.39-2.49-4.23-4.96-4.47
	c1.38-1.07,2.27-2.73,2.27-4.6c0-3.22-2.62-5.83-5.83-5.83c-3.22,0-5.83,2.62-5.83,5.83c0,1.87,0.89,3.54,2.27,4.6
	c-0.02,0-0.04,0-0.05,0c-0.03,0-0.06,0-0.08,0.01c-2.44,0.29-4.35,2.12-4.82,4.45c-1.35-1.82-2.09-4.01-2.09-6.31
	C45.19,13.22,49.96,8.46,55.81,8.46z"/>
</svg>
